<svg width="399" height="270" viewBox="0 0 399 270" fill="none" xmlns="http://www.w3.org/2000/svg">
<path d="M49.6959 247.294L55.8659 247.44L53.5354 266.223L49.3545 266.124L49.6959 247.294Z" fill="#FFB6B6"/>
<path d="M63.6986 274.847C63.6986 274.337 63.4332 273.876 63.0234 273.673L58.4186 271.399L55.2792 264.117L55.2316 256.782L48.7625 256.021L47.8269 260.694C47.8269 260.694 49.7532 260.407 47.3749 262.472C44.9965 264.536 46.1417 268.576 46.1417 268.576L45.623 276.126H49.9041L50.1339 271.43C53.4636 272.843 54.2802 276.126 54.2802 276.126H62.579C63.1973 276.126 63.6986 275.553 63.6986 274.847Z" fill="#2F2E41"/>
<path d="M58.734 247.5L64.904 247.647L62.5735 266.43L58.3926 266.331L58.734 247.5Z" fill="#FFB6B6"/>
<path d="M72.7367 275.054C72.7367 274.544 72.4713 274.082 72.0614 273.88L67.4567 271.605L64.3173 264.324L64.2697 256.989L57.8006 256.228L56.8649 260.901C56.8649 260.901 58.7913 260.613 56.413 262.678C54.0346 264.743 55.1798 268.782 55.1798 268.782L54.6611 276.333H58.9422L59.172 271.637C62.5017 273.05 63.3183 276.333 63.3183 276.333H71.6171C72.2354 276.333 72.7367 275.76 72.7367 275.054Z" fill="#2F2E41"/>
<path d="M51.6579 137.326L44.6633 154.027C42.3317 159.594 41.5928 165.7 42.529 171.663L45.9286 253.711H59.3694L65.2362 180.647L66.3939 209.508L52.9386 250.629H66.1724L83.1589 209.508L84.4182 177.845L78.3834 153.275L51.6579 137.326Z" fill="#2F2E41"/>
<path d="M241.151 65.8618V24.1446C241.151 10.8099 230.342 3.3669e-09 217.007 3.3669e-09H128.622C115.287 -0.000220287 104.477 10.8095 104.477 24.1442V253.008C104.477 266.343 115.286 277.152 128.621 277.152H217.006C230.34 277.152 241.15 266.343 241.15 253.008V95.5568C241.99 95.5568 242.671 94.8759 242.671 94.036L242.672 67.3827C242.672 66.5427 241.991 65.8618 241.151 65.8618Z" fill="#3F3D56"/>
<path d="M236.618 22.1371V254.234C222.508 253.367 229.685 271.959 218.312 272.543H128.114C118 272.545 109.799 264.348 109.796 254.234V22.1371C109.799 12.0234 117.999 3.82659 128.113 3.82788H134.765C132.953 8.28268 147.573 9.73203 148.694 9.73345H194.889C199.698 9.72737 211.3 4.86611 210.878 3.82788H218.309C228.419 3.82961 236.614 12.0238 236.618 22.1336V22.1371Z" fill="white"/>
<path d="M103.766 70.9717C103.123 70.9717 102.6 71.4948 102.6 72.138V81.4687C102.6 82.112 103.123 82.6351 103.766 82.6351C104.409 82.6351 104.932 82.112 104.932 81.4687V72.138C104.932 71.4948 104.409 70.9717 103.766 70.9717Z" fill="#3F3D56"/>
<path d="M103.766 98.9638C103.123 98.9638 102.6 99.4869 102.6 100.13V118.208C102.6 118.852 103.123 119.375 103.766 119.375C104.409 119.375 104.932 118.852 104.932 118.208V100.13C104.932 99.4869 104.409 98.9638 103.766 98.9638Z" fill="#3F3D56"/>
<path d="M103.766 124.623C103.123 124.623 102.6 125.146 102.6 125.79V143.868C102.6 144.511 103.123 145.034 103.766 145.034C104.409 145.034 104.932 144.511 104.932 143.868V125.79C104.932 125.146 104.409 124.623 103.766 124.623Z" fill="#3F3D56"/>
<path d="M378.867 262.4L373.332 266.191L356.074 246.647L364.243 241.052L378.867 262.4Z" fill="#FFB6B6"/>
<path d="M359.819 275.265C359.846 275.673 360.396 276.672 360.628 277.01C361.338 278.047 362.756 278.312 363.793 277.601L380.932 265.859C381.64 265.374 381.821 264.407 381.336 263.7L380.847 262.986C380.847 262.986 380.226 260.26 376.669 258.813C376.669 258.813 375.918 262.369 370.455 261.348L368.312 260.271L364.859 270.073L361.347 273.173C360.578 273.852 359.753 274.242 359.819 275.265Z" fill="#2F2E41"/>
<path d="M338.062 272.465L331.353 272.464L328.162 246.587L336.374 247.61L338.062 272.465Z" fill="#FFB6B6"/>
<path d="M315.077 272.312C314.868 272.664 314.758 273.8 314.758 274.209C314.758 275.466 315.777 276.486 317.035 276.486H337.811C338.669 276.486 339.364 275.79 339.364 274.932V274.067C339.364 274.067 340.392 271.468 338.276 268.263C338.276 268.263 335.646 270.772 331.716 266.843L330.557 264.743L322.169 270.878L317.519 271.45C316.502 271.576 315.6 271.431 315.077 272.312Z" fill="#2F2E41"/>
<path d="M314.54 174.125L315.045 180.228L314.04 185.08L315.869 190.196L318.107 217.245L329.77 263.88L338.676 265.755L334.401 219.172L337.717 180.748L314.54 174.125Z" fill="#2F2E41"/>
<path d="M352.383 147.634L318.324 148.107L314.54 174.124L337.717 185.004L336.978 222.161L362.79 259.526L376.537 251.672L353.501 219.94L359.952 167.028L352.383 147.634Z" fill="#2F2E41"/>
<path d="M327.171 86.4696L321.162 94.1812L324.001 153.31L346.233 152.838L350.017 101.277L345.287 88.0318L343.576 85.0635L341.529 81.2202L328.405 82.1576L327.171 86.4696Z" fill="#E6E6E6"/>
<path d="M318.298 123.036L319.5 135.121L318.023 149.027L316.178 152.797L311.96 167.796C311.96 167.796 307.655 174.355 317.115 174.826C326.576 175.298 357.586 172.229 357.586 172.229C357.586 172.229 361.452 172.134 359.767 164.046C357.046 159.368 358.801 152.777 358.801 152.777L355.221 139.59L356.167 127.291L362.79 95.1242C356.908 90.5021 350.32 87.1939 343.158 84.9534L336.886 101.447L327.547 86.3726L323.999 88.9744C319.214 90.2291 315.003 92.1587 311.672 95.1237L318.298 123.036Z" fill="#2F2E41"/>
<path d="M206.017 94.3457H139.257C134.681 94.3405 130.973 90.6322 130.968 86.0562V57.3598C130.973 52.7838 134.681 49.0755 139.257 49.0703C160.56 43.1684 182.902 43.7215 206.017 49.0703C210.593 49.0757 214.301 52.784 214.306 57.3598V86.0562C214.301 90.632 210.593 94.3403 206.017 94.3457Z" fill="#F2F2F2"/>
<path d="M212.818 124.42H132.456C131.634 124.42 130.969 123.754 130.968 122.932V102.998C130.969 102.177 131.634 101.511 132.456 101.51H212.818C213.639 101.511 214.305 102.177 214.306 102.998V122.933C214.305 123.754 213.639 124.42 212.818 124.421V124.42ZM132.456 102.105C131.963 102.106 131.564 102.505 131.563 102.998V122.933C131.564 123.426 131.963 123.825 132.456 123.826H212.818C213.311 123.825 213.71 123.426 213.711 122.933V102.998C213.71 102.505 213.311 102.106 212.818 102.105H132.456Z" fill="#E6E6E6"/>
<path d="M157.308 108.797C156.733 108.809 156.276 109.285 156.288 109.86C156.3 110.419 156.75 110.868 157.308 110.88H206.418C206.993 110.902 207.477 110.454 207.499 109.879C207.521 109.304 207.073 108.82 206.497 108.798H157.308V108.797Z" fill="#E6E6E6"/>
<path d="M157.308 115.049C156.733 115.061 156.276 115.537 156.288 116.112C156.3 116.671 156.75 117.12 157.308 117.132H206.418C206.993 117.154 207.477 116.706 207.499 116.131C207.521 115.556 207.073 115.072 206.497 115.05H157.308V115.049Z" fill="#E6E6E6"/>
<path d="M143.513 117.133C145.814 117.133 147.68 115.267 147.68 112.966C147.68 110.664 145.814 108.799 143.513 108.799C141.211 108.799 139.346 110.664 139.346 112.966C139.346 115.267 141.211 117.133 143.513 117.133Z" fill="#E6E6E6"/>
<path d="M212.818 222.265H132.456C131.634 222.264 130.969 221.598 130.968 220.777V200.843C130.969 200.022 131.634 199.356 132.456 199.355H212.818C213.639 199.356 214.305 200.022 214.306 200.843V220.777C214.305 221.599 213.639 222.265 212.818 222.266V222.265ZM132.456 199.95C131.963 199.951 131.564 200.35 131.563 200.843V220.777C131.564 221.27 131.963 221.67 132.456 221.67L203.689 220.968C204.182 220.968 211.656 218.18 211.657 217.687L213.711 200.843C213.71 200.35 213.311 199.951 212.818 199.95H132.456Z" fill="#E6E6E6"/>
<path d="M157.308 209.613C156.733 209.601 156.257 210.057 156.244 210.633C156.232 211.208 156.689 211.684 157.264 211.696C157.279 211.697 157.293 211.697 157.308 211.696H206.418C206.993 211.718 207.477 211.27 207.499 210.695C207.521 210.12 207.073 209.636 206.498 209.614H157.308V209.613Z" fill="#E6E6E6"/>
<path d="M143.513 214.978C145.814 214.978 147.68 213.112 147.68 210.81C147.68 208.509 145.814 206.643 143.513 206.643C141.211 206.643 139.346 208.509 139.346 210.81C139.346 213.112 141.211 214.978 143.513 214.978Z" fill="#E6E6E6"/>
<path d="M212.818 181.019H132.456C131.634 181.018 130.969 180.353 130.968 179.531V159.597C130.969 158.776 131.634 158.11 132.456 158.109H212.818C213.639 158.11 214.305 158.776 214.306 159.597V179.532C214.305 180.353 213.639 181.019 212.818 181.02V181.019ZM132.456 158.704C131.963 158.705 131.564 159.104 131.563 159.597V179.532C131.564 180.024 131.963 180.424 132.456 180.424L203.689 179.722C204.182 179.722 211.656 176.934 211.657 176.441L213.711 159.597C213.71 159.104 213.311 158.705 212.818 158.704H132.456Z" fill="#E6E6E6"/>
<path d="M157.308 168.367C156.733 168.355 156.257 168.811 156.244 169.387C156.232 169.962 156.689 170.438 157.264 170.45C157.279 170.451 157.293 170.451 157.308 170.45H206.418C206.993 170.472 207.477 170.024 207.499 169.449C207.521 168.874 207.073 168.39 206.498 168.368H157.308V168.367Z" fill="#E6E6E6"/>
<path d="M143.513 173.732C145.814 173.732 147.68 171.866 147.68 169.565C147.68 167.263 145.814 165.397 143.513 165.397C141.211 165.397 139.346 167.263 139.346 169.565C139.346 171.866 141.211 173.732 143.513 173.732Z" fill="#E6E6E6"/>
<path d="M333.795 80.6732C340.28 80.6732 345.536 75.4167 345.536 68.9325C345.536 62.4483 340.28 57.1918 333.795 57.1918C327.311 57.1918 322.055 62.4483 322.055 68.9325C322.055 75.4167 327.311 80.6732 333.795 80.6732Z" fill="#FFB6B6"/>
<path d="M342.419 78.5792C343.065 78.6895 343.824 77.122 344.55 75.5953C346.069 72.3994 347.034 70.3677 347.108 67.496C347.17 65.0484 346.49 65.6908 345.829 60.2492C345.611 58.4545 342.544 58.4579 341.92 57.6057C340.866 56.1661 342.484 55.5724 339.861 54.7076C334.948 53.0878 332.727 55.6041 329.607 55.8209C329.528 55.8264 327.982 57.3389 327.118 57.4171C325.605 57.5541 323.421 57.3184 322.443 55.0127C321.527 52.8568 320.921 59.1567 321.739 59.9364C322.434 60.5983 323.632 62.2598 323.662 62.3806C323.697 62.5174 320.814 59.3236 320.332 60.6398C319.986 61.587 321.076 66.4603 321.957 66.6434C322.694 66.7966 324.495 64.3689 324.089 65.3646C323.146 67.6736 328.813 69.147 335.598 64.512C335.839 64.3476 335.611 64.6098 336.451 66.6434C337.509 69.2083 337.748 69.3472 337.729 70.0536C337.689 71.5829 336.541 72.0332 336.877 73.0376C337.149 73.8511 338.211 74.4809 339.008 74.3164C339.908 74.1308 340.062 73.0178 340.713 73.0376C341.271 73.0546 341.933 73.8947 341.992 74.7427C342.116 76.5292 339.472 77.0205 339.008 79.4318C338.747 80.7926 341.824 78.4779 342.419 78.5792Z" fill="#2F2E41"/>
<path d="M368.988 172.426C369.039 171.111 368.774 169.804 368.216 168.612L369.425 154.911L362.887 154.526L362.365 168.469C361.748 169.631 361.418 170.924 361.403 172.24C361.321 175.531 362.953 178.241 365.047 178.294C367.14 178.346 368.905 175.72 368.987 172.429L368.988 172.426Z" fill="#FFB6B6"/>
<path d="M355.08 117.176L360.235 133.112L361.716 165.659L370.346 165.483L371.016 129.831C371.016 129.831 366.714 103.487 365.274 97.5661C363.834 91.645 350.554 93.8393 350.554 93.8393L355.08 117.176Z" fill="#2F2E41"/>
<path d="M141.229 75.6283C143.668 76.4378 146.224 77.2573 148.826 77.119C150.011 77.0561 151.15 76.7736 152.224 76.2713C153.326 75.756 154.333 75.0563 155.449 74.5681C159.548 72.774 163.613 75.8389 167.436 76.9892C169.343 77.5631 171.349 77.7005 173.214 76.9011C175.275 76.0179 176.83 74.3325 178.527 72.9253C182.333 69.7703 187.297 68.0693 192.236 68.1979C197.654 68.3389 202.897 70.7319 206.628 74.646C206.941 74.9741 207.438 74.4765 207.125 74.1488C203.865 70.7282 199.472 68.422 194.793 67.7231C190.105 67.0228 185.238 67.9586 181.115 70.2934C179.029 71.4749 177.356 73.0922 175.518 74.6015C173.729 76.0713 171.739 77.0184 169.38 76.7061C165.315 76.1679 161.819 73.0359 157.603 73.3198C154.911 73.5012 152.988 75.5269 150.455 76.1726C147.432 76.9431 144.273 75.8989 141.416 74.9503C140.986 74.8074 140.801 75.4861 141.229 75.6283Z" fill="#3F3D56"/>
<path d="M148.861 79.3744C150.299 79.3744 151.465 78.2085 151.465 76.7703C151.465 75.332 150.299 74.1661 148.861 74.1661C147.423 74.1661 146.257 75.332 146.257 76.7703C146.257 78.2085 147.423 79.3744 148.861 79.3744Z" fill="#6C63FF"/>
<path d="M171.341 79.4897C172.78 79.4897 173.946 78.3238 173.946 76.8855C173.946 75.4473 172.78 74.2814 171.341 74.2814C169.903 74.2814 168.737 75.4473 168.737 76.8855C168.737 78.3238 169.903 79.4897 171.341 79.4897Z" fill="#6C63FF"/>
<path d="M194.172 70.656C195.611 70.656 196.777 69.4901 196.777 68.0519C196.777 66.6137 195.611 65.4478 194.172 65.4478C192.734 65.4478 191.568 66.6137 191.568 68.0519C191.568 69.4901 192.734 70.656 194.172 70.656Z" fill="#6C63FF"/>
<path d="M43.0672 158.398C35.3678 180.32 45.1776 197.591 43.1419 186.45C41.4405 177.139 70.431 148.806 79.1573 154.648C78.9745 153.703 73.4279 136.656 72.8842 136.577C73.6449 134.662 72.5847 134.643 72.5416 133.662C72.3766 129.871 73.2578 125.936 74.9741 121.886C76.099 118.757 76.1187 116.068 75.0285 113.901C74.0905 112.119 72.5145 110.757 70.6157 110.087L64.8975 103.181C63.408 101.383 61.2112 97.5049 58.877 97.5194L46.3472 97.0718C45.9891 96.8567 41.5894 100.64 37.3054 102.497C32.6592 104.512 33.6177 110.013 33.6294 110.083L33.6402 110.149L33.6913 110.195L40.5207 130.297L46.6912 136.08C46.3786 136.987 46.4569 137.667 47.0423 138.058C46.2019 138.679 42.4635 157.278 43.0672 157.929L43.0672 158.398Z" fill="#6C63FF"/>
<path d="M107.45 118.615C106.518 118.987 105.689 119.576 105.032 120.334L95.1094 123.735L96.8661 128.409L106.742 124.456C107.743 124.526 108.746 124.355 109.667 123.958C111.986 122.996 113.37 121.02 112.757 119.544C112.144 118.069 109.769 117.653 107.45 118.615Z" fill="#FFB6B6"/>
<path d="M54.5195 103.615L77.1556 134.17L103.689 126.863L102.536 119.941L82.331 123.768L71.0591 106.439C67.3784 99.3239 60.1238 97.8911 54.5195 103.614V103.615Z" fill="#6C63FF"/>
<path d="M217.097 257.687H206.767C204.963 257.687 203.495 256.219 203.495 254.415C201.537 249.095 201.29 244.323 203.495 240.336C203.495 238.532 204.963 237.064 206.767 237.064C209.822 234.848 213.383 235.521 217.097 237.064C218.901 237.064 220.369 238.532 220.369 240.336C219.115 244.847 219.206 249.553 220.369 254.415C220.369 256.219 218.901 257.687 217.097 257.687Z" fill="#6C63FF"/>
<path d="M216.099 243.33H207.756C207.468 243.33 207.234 243.097 207.234 242.809C207.234 242.521 207.468 242.287 207.756 242.287H216.099C216.387 242.287 216.62 242.521 216.62 242.809C216.62 243.097 216.387 243.33 216.099 243.33Z" fill="white"/>
<path d="M216.099 247.501H207.756C207.468 247.501 207.234 247.267 207.234 246.979C207.234 246.691 207.468 246.458 207.756 246.458H216.099C216.387 246.458 216.62 246.691 216.62 246.979C216.62 247.267 216.387 247.501 216.099 247.501Z" fill="white"/>
<path d="M216.099 251.672H207.756C207.468 251.672 207.234 251.438 207.234 251.15C207.234 250.862 207.468 250.629 207.756 250.629H216.099C216.387 250.629 216.62 250.862 216.62 251.15C216.62 251.438 216.387 251.672 216.099 251.672Z" fill="white"/>
<path d="M311.314 171.333C311.653 174.607 313.617 177.087 315.7 176.871C317.784 176.655 319.198 173.826 318.859 170.551C318.742 169.241 318.312 167.978 317.606 166.867L315.996 153.008L309.508 153.902L311.784 167.467C311.321 168.699 311.159 170.023 311.312 171.33L311.314 171.333Z" fill="#FFB6B6"/>
<path d="M320.861 115.162L323.55 91.5428C323.55 91.5428 310.139 90.3929 309.166 96.4084C308.192 102.424 305.963 129.023 305.963 129.023L309.416 164.514L318.034 164.015L316.966 131.452L320.861 115.162Z" fill="#2F2E41"/>
<path d="M61.796 94.4705L43.6763 96.1204L43.1416 77.2878L62.8818 76.7273L61.796 94.4705Z" fill="#2F2E41"/>
<path d="M52.6332 91.9426C57.885 91.9426 62.1425 87.6852 62.1425 82.4334C62.1425 77.1816 57.885 72.9242 52.6332 72.9242C47.3814 72.9242 43.124 77.1816 43.124 82.4334C43.124 87.6852 47.3814 91.9426 52.6332 91.9426Z" fill="#FFB6B6"/>
<path d="M60.2834 73.1678C60.2164 70.8083 57.2804 70.5528 54.9929 69.9705L52.9186 68.894C50.8826 68.3757 48.7223 68.7402 46.9691 69.898L41.4379 73.2487C38.9544 74.8888 38.5598 77.5396 37.5499 80.3392L35.722 84.4374C34.7278 87.1933 36.0415 90.8451 37.0466 93.5971L37.4677 94.7503L36.8092 98.5245L48.3358 97.9862L49.3604 92.1598L47.3928 89.9481C46.6947 89.1633 46.6381 87.998 47.2568 87.1493C49.4825 84.0962 49.07 79.8176 49.07 79.8176L51.8867 81.3541C53.7375 81.6066 55.3868 81.5789 56.8379 81.2756C58.4339 80.9421 59.7902 80.2753 60.9111 79.2812L61.9154 82.6589C62.1741 86.8628 61.3885 87.9785 57.6415 92.0906L64.2123 96.2158L63.9693 93.9834C63.3912 88.6729 65.1537 84.4852 64.9066 80.1631C64.7358 77.1744 62.9583 74.5117 60.2834 73.1678Z" fill="#2F2E41"/>
<path d="M61.8565 153.35C60.9282 152.97 59.9223 152.818 58.923 152.907L49.424 148.458L47.4395 153.039L57.2888 157.059C57.9599 157.805 58.7998 158.379 59.7383 158.734C62.0743 159.653 64.4428 159.194 65.0272 157.707C65.6116 156.22 64.1926 154.27 61.8565 153.35Z" fill="#FFB6B6"/>
<path d="M34.2164 105.783L29.2627 143.486L53.4214 156.669L57.4017 150.889L40.2126 139.601L44.1481 119.307C46.4452 111.633 42.2239 105.562 34.2167 105.783L34.2164 105.783Z" fill="#6C63FF"/>
</svg>
