<svg width="18" height="24" viewBox="0 0 18 24" fill="none" xmlns="http://www.w3.org/2000/svg">
<g id="Group">
<path id="Vector" d="M10.8 0.328039C10.1561 0.108456 9.48024 -0.00239305 8.79999 3.91717e-05C7.1026 3.91717e-05 5.47474 0.674322 4.27451 1.87455C3.07428 3.07478 2.4 4.70265 2.4 6.40003C2.4 8.09741 3.07428 9.72527 4.27451 10.9255C5.47474 12.1257 7.1026 12.8 8.79999 12.8C9.48024 12.8025 10.1561 12.6916 10.8 12.472C9.52536 12.0474 8.41667 11.2325 7.63101 10.1427C6.84535 9.05291 6.42257 7.7435 6.42257 6.40003C6.42257 5.05655 6.84535 3.74714 7.63101 2.65734C8.41667 1.56754 9.52536 0.752614 10.8 0.328039ZM2.4 24H6.39999C5.76347 24 5.15302 23.7471 4.70294 23.2971C4.25285 22.847 3.99999 22.2365 3.99999 21.6V20C3.99999 18.5148 4.58999 17.0904 5.64019 16.0402C6.6904 14.99 8.11478 14.4 9.59999 14.4H5.59999C4.11478 14.4 2.6904 14.99 1.6402 16.0402C0.589997 17.0904 0 18.5148 0 20V21.6C0 22.2365 0.252856 22.847 0.702943 23.2971C1.15303 23.7471 1.76348 24 2.4 24Z" fill="#E73493"/>
<g id="Group_2">
<path id="Vector_2" d="M8.79999 12.8C10.0658 12.8 11.3032 12.4247 12.3556 11.7215C13.4081 11.0182 14.2284 10.0187 14.7128 8.84922C15.1972 7.67978 15.3239 6.39295 15.077 5.15148C14.8301 3.91 14.2205 2.76963 13.3255 1.87458C12.4304 0.979523 11.29 0.369983 10.0486 0.123038C8.80709 -0.123907 7.52026 0.00283403 6.35082 0.487234C5.18137 0.971634 4.18183 1.79194 3.47859 2.84441C2.77535 3.89688 2.4 5.13426 2.4 6.40005C2.4 8.09744 3.07428 9.7253 4.27451 10.9255C5.47474 12.1258 7.1026 12.8 8.79999 12.8ZM8.79999 1.60006C9.74933 1.60006 10.6774 1.88158 11.4667 2.40901C12.2561 2.93644 12.8713 3.68609 13.2346 4.56318C13.5979 5.44026 13.693 6.40538 13.5077 7.33649C13.3225 8.26759 12.8654 9.12287 12.1941 9.79416C11.5228 10.4655 10.6675 10.9226 9.73642 11.1078C8.80531 11.293 7.84019 11.198 6.96311 10.8347C6.08602 10.4714 5.33637 9.85614 4.80894 9.06679C4.28151 8.27743 3.99999 7.3494 3.99999 6.40005C3.99999 5.12702 4.50571 3.90612 5.40588 3.00595C6.30605 2.10577 7.52695 1.60006 8.79999 1.60006ZM12 14.4H5.59999C4.11478 14.4 2.6904 14.99 1.6402 16.0402C0.589997 17.0904 0 18.5148 0 20V21.6C0 22.2365 0.252856 22.847 0.702943 23.2971C1.15303 23.7472 1.76348 24 2.4 24H15.2C15.8365 24 16.4469 23.7472 16.897 23.2971C17.3471 22.847 17.6 22.2365 17.6 21.6V20C17.6 18.5148 17.01 17.0904 15.9598 16.0402C14.9096 14.99 13.4852 14.4 12 14.4ZM16 21.6C16 21.8122 15.9157 22.0157 15.7657 22.1657C15.6156 22.3157 15.4121 22.4 15.2 22.4H2.4C2.18782 22.4 1.98434 22.3157 1.83431 22.1657C1.68428 22.0157 1.6 21.8122 1.6 21.6V20C1.6 18.9392 2.02142 17.9218 2.77157 17.1716C3.52171 16.4215 4.53913 16 5.59999 16H12C13.0608 16 14.0783 16.4215 14.8284 17.1716C15.5785 17.9218 16 18.9392 16 20V21.6Z" fill="white"/>
</g>
</g>
</svg>
