<svg width="45" height="45" viewBox="0 0 45 45" fill="none" xmlns="http://www.w3.org/2000/svg">
<g id="Group">
<path id="Vector" d="M22.5 0C10.08 0 0 10.08 0 22.5C0 34.92 10.08 45 22.5 45C34.92 45 45 34.92 45 22.5C45 10.08 34.92 0 22.5 0ZM22.5 36C20.85 36 19.5 34.65 19.5 33C19.5 31.35 20.85 30 22.5 30C24.15 30 25.5 31.35 25.5 33C25.5 34.65 24.15 36 22.5 36ZM25.935 12.735L24.93 24.765C24.825 26.025 23.775 27 22.5 27C21.225 27 20.175 26.025 20.07 24.765L19.065 12.735C18.9 10.725 20.475 9 22.5 9C22.9531 9 23.4017 9.08924 23.8203 9.26262C24.2388 9.43599 24.6192 9.69012 24.9395 10.0105C25.2599 10.3308 25.514 10.7112 25.6874 11.1297C25.8608 11.5483 25.95 11.9969 25.95 12.45C25.95 12.54 25.95 12.645 25.935 12.735Z" fill="#FF6174"/>
</g>
</svg>
