<svg width="12" height="12" viewBox="0 0 12 12" fill="none" xmlns="http://www.w3.org/2000/svg">
<g id="Group">
<g id="Group_2">
<path id="Vector" d="M5.71162 12C5.59605 12 5.48047 11.9783 5.37272 11.9346C2.10897 10.6117 0 7.48269 0 3.96303C0 3.45549 0.0448421 2.94745 0.133263 2.45305C0.16215 2.29311 0.232479 2.14356 0.33723 2.0193C0.441981 1.89505 0.57749 1.80044 0.730232 1.74492L5.39634 0.0551917C5.6 -0.0183972 5.82299 -0.0183972 6.02666 0.0551917L10.6911 1.74505C10.8438 1.80059 10.9793 1.89521 11.084 2.01947C11.1888 2.14372 11.2591 2.29326 11.288 2.45317C11.3768 2.95155 11.4213 3.4568 11.4212 3.96303C11.4212 7.48307 9.31302 10.612 6.0504 11.9346C5.94268 11.9779 5.82774 12.0001 5.71162 12ZM5.7115 0.571445C5.6707 0.571445 5.6299 0.578392 5.59099 0.592539L0.925011 2.28227C0.866428 2.30351 0.814439 2.33974 0.774233 2.38735C0.734027 2.43496 0.707008 2.49228 0.695874 2.55359C0.613058 3.01883 0.571465 3.49047 0.571579 3.96303C0.571579 7.24875 2.54046 10.1699 5.58733 11.4049C5.66705 11.437 5.75608 11.437 5.83579 11.4049C8.88177 10.1703 10.8499 7.24913 10.8499 3.96303C10.8499 3.48909 10.8081 3.0149 10.7256 2.55372C10.7145 2.49241 10.6875 2.43508 10.6473 2.38745C10.6071 2.33983 10.5552 2.30356 10.4966 2.28227L5.832 0.592539C5.79332 0.578567 5.75263 0.571429 5.7115 0.571445Z" fill="#E73493"/>
<path id="Vector_2" d="M4.75623 8.00691C4.68044 8.00691 4.60781 7.97672 4.55412 7.92316L3.02507 6.39385C2.99854 6.36733 2.9775 6.33584 2.96315 6.30119C2.94879 6.26653 2.94141 6.22939 2.94141 6.19188C2.94141 6.15436 2.94879 6.11722 2.96315 6.08256C2.9775 6.04791 2.99854 6.01642 3.02507 5.9899C3.05159 5.96337 3.08308 5.94233 3.11774 5.92798C3.15239 5.91362 3.18954 5.90623 3.22705 5.90623C3.26456 5.90623 3.3017 5.91362 3.33636 5.92798C3.37101 5.94233 3.4025 5.96337 3.42903 5.9899L4.75623 7.3171L7.99206 4.08126C8.01859 4.05474 8.05009 4.0337 8.08475 4.01935C8.11942 4.005 8.15657 3.99761 8.19408 3.99762C8.2316 3.99763 8.26875 4.00502 8.30341 4.01938C8.33807 4.03375 8.36956 4.05479 8.39608 4.08133C8.42261 4.10786 8.44365 4.13936 8.458 4.17402C8.47235 4.20868 8.47973 4.24583 8.47973 4.28335C8.47972 4.32087 8.47233 4.35802 8.45796 4.39267C8.4436 4.42733 8.42255 4.45882 8.39602 4.48535L4.95833 7.92316C4.93181 7.94972 4.9003 7.97079 4.86562 7.98516C4.83094 7.99953 4.79377 8.00692 4.75623 8.00691Z" fill="#E73493"/>
</g>
</g>
</svg>
