<svg width="8" height="12" viewBox="0 0 8 12" fill="none" xmlns="http://www.w3.org/2000/svg">
<path id="Vector" d="M2.36898 6.00254L6.85815 1.51317C6.98176 1.38985 7.04976 1.22498 7.04976 1.04917C7.04976 0.873268 6.98176 0.708488 6.85815 0.584976L6.46478 0.191805C6.34137 0.0680976 6.17639 0 6.00059 0C5.82478 0 5.66 0.0680976 5.53649 0.191805L0.191417 5.53678C0.0674172 5.66068 -0.000485191 5.82624 2.61379e-06 6.00224C-0.000485191 6.17902 0.0673197 6.34439 0.191417 6.46839L5.53151 11.8082C5.65503 11.9319 5.81981 12 5.99571 12C6.17151 12 6.3363 11.9319 6.4599 11.8082L6.85317 11.415C7.10908 11.1591 7.10908 10.7425 6.85317 10.4867L2.36898 6.00254Z" fill="black"/>
</svg>
