<svg xmlns="http://www.w3.org/2000/svg" width="20" height="14" viewBox="0 0 20 14" fill="none">
  <path d="M18.3748 6.13575H2.98706L7.61844 1.50438C7.70201 1.42366 7.76867 1.32711 7.81453 1.22036C7.86038 1.1136 7.88452 0.998785 7.88553 0.882603C7.88654 0.766421 7.8644 0.651202 7.82041 0.543667C7.77641 0.436133 7.71144 0.338437 7.62928 0.256281C7.54713 0.174125 7.44943 0.109154 7.3419 0.065158C7.23436 0.0211623 7.11914 -0.000976552 7.00296 3.30374e-05C6.88678 0.00104263 6.77196 0.0251806 6.66521 0.0710385C6.55846 0.116896 6.4619 0.183556 6.38119 0.267127L0.256188 6.39213C0.092151 6.55621 0 6.77873 0 7.01075C0 7.24277 0.092151 7.46529 0.256188 7.62938L6.38119 13.7544C6.54622 13.9138 6.76724 14.002 6.99666 14C7.22609 13.998 7.44555 13.906 7.60778 13.7437C7.77001 13.5815 7.86203 13.362 7.86403 13.1326C7.86602 12.9032 7.77783 12.6822 7.61844 12.5171L2.98706 7.88575H18.3748C18.6069 7.88575 18.8294 7.79356 18.9935 7.62947C19.1576 7.46538 19.2498 7.24282 19.2498 7.01075C19.2498 6.77869 19.1576 6.55613 18.9935 6.39203C18.8294 6.22794 18.6069 6.13575 18.3748 6.13575Z" fill="black"/>
</svg>