<svg width="21" height="21" viewBox="0 0 21 21" fill="none" xmlns="http://www.w3.org/2000/svg">
<path d="M10.5 1.27148C12.6289 1.27317 14.6918 2.01064 16.3393 3.35899C17.9869 4.70733 19.1177 6.58368 19.5403 8.67023C19.963 10.7568 19.6514 12.9253 18.6585 14.8085C17.6655 16.6917 16.0522 18.1738 14.0917 19.0038C11.8399 19.9372 9.31031 19.942 7.05492 19.0173C4.79952 18.0925 3.00142 16.3133 2.05298 14.0678C1.10454 11.8222 1.08274 9.29273 1.99235 7.0312C2.90196 4.76966 4.66914 2.95969 6.90826 1.99623C8.04452 1.51534 9.26618 1.26884 10.5 1.27148ZM10.5 0C4.70121 0 0 4.70121 0 10.5C0 16.2988 4.70121 21 10.5 21C16.2988 21 21 16.2988 21 10.5C21 4.70121 16.2988 0 10.5 0Z" fill="#36256E"/>
<path d="M10.4883 16.2423H7.6906C6.41173 16.2423 5.48888 15.3228 5.48231 14.0443C5.47985 13.5981 5.47985 13.1517 5.48231 12.7051C5.48478 12.245 5.76368 11.9488 6.19024 11.948C6.61681 11.9472 6.8994 12.2413 6.90228 12.701C6.90515 13.1608 6.90228 13.61 6.90228 14.0644C6.90556 14.541 7.18569 14.8187 7.66394 14.8191H13.3311C13.8097 14.8191 14.0903 14.541 14.094 14.0648C14.0972 13.6104 14.094 13.1559 14.094 12.7015C14.094 12.247 14.3774 11.9472 14.8056 11.948C15.2338 11.9488 15.5168 12.245 15.5131 12.7047C15.5086 13.2859 15.541 13.8733 15.468 14.4467C15.3343 15.4959 14.4397 16.2366 13.3782 16.2415C12.4172 16.2444 11.4525 16.2423 10.4883 16.2423Z" fill="#36256E"/>
<path d="M11.2116 10.208C11.3199 10.1071 11.3835 10.0518 11.4425 9.99228C11.897 9.53332 12.349 9.07148 12.8055 8.61416C13.1295 8.28972 13.5811 8.26552 13.8739 8.55017C14.1668 8.83482 14.1553 9.30035 13.8366 9.62109C12.9088 10.5546 11.9781 11.4852 11.0443 12.413C10.7161 12.7391 10.2871 12.7411 9.95899 12.413C9.01891 11.4806 8.08266 10.5442 7.15024 9.60386C6.84344 9.29419 6.8418 8.82867 7.12686 8.55058C7.41192 8.2725 7.86514 8.2848 8.17809 8.5957C8.64157 9.05671 9.09807 9.52552 9.55827 9.99023C9.61733 10.0501 9.68131 10.1059 9.77606 10.1953C9.78221 10.0665 9.78959 9.98326 9.78959 9.9C9.78959 8.43205 9.78713 6.96451 9.78959 5.49656C9.78959 4.94572 10.2744 4.618 10.7781 4.81447C11.0574 4.92275 11.2083 5.16474 11.2087 5.51912C11.2104 6.97107 11.2104 8.42289 11.2087 9.87457L11.2116 10.208Z" fill="#36256E"/>
</svg>
