<svg width="20" height="23" viewBox="0 0 20 23" fill="none" xmlns="http://www.w3.org/2000/svg">
<g id="Group">
<path id="Vector" d="M16.0968 22.6869H5.76702C3.96293 22.6869 2.49526 21.219 2.49526 19.4152C0.537079 14.0948 0.290054 9.32253 2.49526 5.33574C2.49526 3.53188 3.96293 2.06398 5.76702 2.06398C8.82155 -0.15172 12.3829 0.521211 16.0968 2.06398C17.9009 2.06398 19.3686 3.53188 19.3686 5.33574C18.1151 9.84662 18.2059 14.553 19.3686 19.4152C19.3686 21.219 17.9009 22.6869 16.0968 22.6869Z" fill="#6C63FF"/>
<g id="Group_2">
<path id="ad-338" d="M15.0987 8.33008H6.7558C6.46783 8.33008 6.23438 8.09662 6.23438 7.80866C6.23438 7.5207 6.46783 7.28723 6.7558 7.28723H15.0987C15.3867 7.28723 15.6201 7.5207 15.6201 7.80866C15.6201 8.09662 15.3867 8.33008 15.0987 8.33008Z" fill="white"/>
<path id="ae-339" d="M15.0987 12.5006H6.7558C6.46783 12.5006 6.23438 12.2672 6.23438 11.9792C6.23438 11.6912 6.46783 11.4578 6.7558 11.4578H15.0987C15.3867 11.4578 15.6201 11.6912 15.6201 11.9792C15.6201 12.2672 15.3867 12.5006 15.0987 12.5006Z" fill="white"/>
<path id="af-340" d="M15.0987 16.6716H6.7558C6.46783 16.6716 6.23438 16.4382 6.23438 16.1502C6.23438 15.8622 6.46783 15.6288 6.7558 15.6288H15.0987C15.3867 15.6288 15.6201 15.8622 15.6201 16.1502C15.6201 16.4382 15.3867 16.6716 15.0987 16.6716Z" fill="white"/>
</g>
</g>
</svg>
