<svg width="24" height="24" viewBox="0 0 24 24" fill="none" xmlns="http://www.w3.org/2000/svg">
<g id="Group">
<path id="Vector" d="M12 24C18.6274 24 24 18.6274 24 12C24 5.37258 18.6274 0 12 0C5.37258 0 0 5.37258 0 12C0 18.6274 5.37258 24 12 24Z" fill="#32BA7C"/>
<path id="Vector_2" d="M12.303 14.6877C12.833 15.2176 12.833 16.1262 12.303 16.6561L11.2052 17.7539C10.6753 18.2839 9.76675 18.2839 9.23679 17.7539L4.42921 12.9085C3.89925 12.3785 3.89925 11.47 4.42921 10.94L5.52701 9.84224C6.05698 9.31227 6.96549 9.31227 7.49546 9.84224L12.303 14.6877Z" fill="white"/>
<path id="Vector_3" d="M16.5048 6.32173C17.0348 5.79176 17.9433 5.79176 18.4733 6.32173L19.5711 7.41952C20.1011 7.94949 20.1011 8.85801 19.5711 9.38798L11.243 17.6782C10.7131 18.2082 9.80453 18.2082 9.27456 17.6782L8.17677 16.5804C7.6468 16.0504 7.6468 15.1419 8.17677 14.612L16.5048 6.32173Z" fill="white"/>
</g>
</svg>
