<svg width="85" height="24" viewBox="0 0 85 24" fill="none" xmlns="http://www.w3.org/2000/svg">
<g id="i">
<path id="j-326" d="M82.8179 23.4205H2.4559C1.63435 23.4197 0.968547 22.7539 0.967773 21.9323V1.99839C0.968805 1.17694 1.63447 0.511285 2.4559 0.510254H82.8179C83.6393 0.511285 84.305 1.17694 84.306 1.99839V21.9328C84.305 22.7542 83.6393 23.4199 82.8179 23.4209V23.4205ZM2.4559 1.10549C1.96299 1.10601 1.56352 1.50545 1.56301 1.99837V21.9328C1.56352 22.4257 1.96299 22.8252 2.4559 22.8257H82.8179C83.3108 22.8252 83.7103 22.4257 83.7108 21.9328V1.99837C83.7103 1.50545 83.3108 1.10601 82.8179 1.10549H2.4559Z" fill="#E6E6E6"/>
<path id="k-327" d="M27.308 7.79669C26.7327 7.80885 26.2762 8.28509 26.2883 8.8604C26.3001 9.4186 26.7498 9.86828 27.308 9.88008H76.4178C76.9929 9.90208 77.4769 9.45375 77.4989 8.87869C77.5209 8.30364 77.0725 7.81964 76.4975 7.79764H27.308V7.79669Z" fill="#E6E6E6"/>
<path id="l-328" d="M27.308 14.0487C26.7327 14.0609 26.2762 14.5371 26.2883 15.1124C26.3001 15.6706 26.7498 16.1203 27.308 16.1321H76.4178C76.9929 16.1541 77.4769 15.7058 77.4989 15.1307C77.5209 14.5557 77.0725 14.0717 76.4975 14.0497H27.308V14.0487Z" fill="#E6E6E6"/>
<path id="m" d="M13.5129 16.1331C15.8144 16.1331 17.6802 14.2673 17.6802 11.9658C17.6802 9.66432 15.8144 7.79858 13.5129 7.79858C11.2114 7.79858 9.3457 9.66432 9.3457 11.9658C9.3457 14.2673 11.2114 16.1331 13.5129 16.1331Z" fill="#E6E6E6"/>
</g>
</svg>
