<svg width="38" height="45" viewBox="0 0 38 45" fill="none" xmlns="http://www.w3.org/2000/svg">
<g id="Group">
<path id="Vector" d="M18.6603 45L17.9621 44.6827C11.7988 41.8813 6.51298 37.727 2.25246 32.3345C0.799805 30.4964 0 28.1849 0 25.8256V0L2.44666 1.04977C5.42946 2.32966 7.84455 2.9257 10.0459 2.9257C13.8999 2.9257 17.7226 0.582258 17.7608 0.558633L18.6603 0.00105469L19.5758 0.534516C19.6133 0.556172 23.5786 2.83936 27.418 2.83936C30.1926 2.83936 32.8521 1.87924 34.859 1.04259L37.289 0.0302344V26.0736C37.289 28.3005 36.6012 30.4299 35.3005 32.2334C31.3275 37.7378 25.9668 41.9335 19.3675 44.7031L18.6603 45ZM3.50937 5.22809V25.8256C3.50937 27.3985 4.04079 28.9375 5.00618 30.1589C8.75503 34.9033 13.3649 38.6018 18.7166 41.1619C24.3878 38.6483 29.0069 34.956 32.4544 30.1791C33.321 28.9781 33.7794 27.5581 33.7794 26.0736V5.20502C31.9016 5.83622 29.732 6.34873 27.418 6.34873C23.8151 6.34873 20.3206 4.8477 18.7133 4.0474C17.1307 4.88123 13.6925 6.43521 10.0459 6.43521C7.66301 6.43549 5.39627 5.8763 3.50937 5.22809ZM29.5362 16.1867L27.0546 13.7052L16.7363 24.0241L11.0237 18.3115L8.54184 20.793L16.7363 28.9872L29.5362 16.1867Z" fill="#36256E"/>
</g>
</svg>
