<svg width="852" height="594" viewBox="0 0 852 594" fill="none" xmlns="http://www.w3.org/2000/svg">
<g clip-path="url(#clip0_77_880)">
<path d="M106.528 527.613L119.692 527.924L114.72 567.999L105.8 567.789L106.528 527.613Z" fill="#FFB6B6"/>
<path d="M136.404 586.399C136.404 585.311 135.838 584.326 134.963 583.895L125.139 579.041L118.441 563.507L118.339 547.856L104.537 546.233L102.541 556.203C102.541 556.203 106.651 555.59 101.576 559.995C96.5022 564.4 98.9455 573.019 98.9455 573.019L97.8389 589.128H106.973L107.463 579.109C114.567 582.124 116.309 589.128 116.309 589.128H134.015C135.334 589.128 136.404 587.906 136.404 586.399Z" fill="#2F2E41"/>
<path d="M125.812 528.054L138.975 528.365L134.003 568.44L125.083 568.23L125.812 528.054Z" fill="#FFB6B6"/>
<path d="M155.687 586.84C155.687 585.752 155.121 584.768 154.246 584.336L144.422 579.482L137.724 563.948L137.622 548.297L123.82 546.674L121.824 556.644C121.824 556.644 125.934 556.031 120.86 560.436C115.785 564.842 118.229 573.46 118.229 573.46L117.122 589.569H126.256L126.746 579.55C133.85 582.565 135.593 589.569 135.593 589.569H153.298C154.618 589.569 155.687 588.347 155.687 586.84Z" fill="#2F2E41"/>
<path d="M110.715 292.991L95.7912 328.624C90.8166 340.502 89.2402 353.529 91.2377 366.25L98.4908 541.304H127.167L139.684 385.419L142.154 446.995L113.447 534.728H141.682L177.923 446.995L180.61 379.441L167.735 327.019L110.715 292.991Z" fill="#2F2E41"/>
<path d="M515.009 140.519V51.5136C515.009 23.0634 491.946 7.18343e-09 463.496 7.18343e-09H274.922C246.472 -0.000469993 223.408 23.0626 223.407 51.5128V539.804C223.407 568.254 246.471 591.317 274.921 591.317H463.493C491.944 591.317 515.007 568.254 515.007 539.804V203.875C516.799 203.875 518.252 202.422 518.252 200.63L518.254 143.764C518.254 141.972 516.801 140.519 515.009 140.519Z" fill="#3F3D56"/>
<path d="M505.336 47.2305V542.42C475.231 540.57 490.543 580.237 466.28 581.484H273.837C252.258 581.487 234.761 563.998 234.755 542.42V47.2305C234.761 25.6525 252.257 8.16423 273.835 8.16699H288.027C284.162 17.6715 315.355 20.7638 317.746 20.7668H416.305C426.566 20.7538 451.319 10.3821 450.418 8.16699H466.272C487.842 8.17068 505.328 25.6533 505.336 47.223V47.2305Z" fill="white"/>
<path d="M221.891 151.421C220.518 151.421 219.402 152.537 219.402 153.91V173.817C219.402 175.19 220.518 176.306 221.891 176.306C223.263 176.306 224.379 175.19 224.379 173.817V153.91C224.379 152.537 223.263 151.421 221.891 151.421Z" fill="#3F3D56"/>
<path d="M221.891 211.144C220.518 211.144 219.402 212.26 219.402 213.632V252.203C219.402 253.575 220.518 254.691 221.891 254.691C223.263 254.691 224.379 253.575 224.379 252.203V213.632C224.379 212.26 223.263 211.144 221.891 211.144Z" fill="#3F3D56"/>
<path d="M221.891 265.889C220.518 265.889 219.402 267.005 219.402 268.378V306.948C219.402 308.321 220.518 309.437 221.891 309.437C223.263 309.437 224.379 308.321 224.379 306.948V268.378C224.379 267.005 223.263 265.889 221.891 265.889Z" fill="#3F3D56"/>
<path d="M808.83 559.842L797.021 567.931L760.201 526.233L777.629 514.295L808.83 559.842Z" fill="#FFB6B6"/>
<path d="M768.191 587.29C768.248 588.162 769.423 590.293 769.917 591.013C771.433 593.226 774.456 593.791 776.67 592.275L813.238 567.222C814.748 566.188 815.133 564.125 814.099 562.615L813.056 561.093C813.056 561.093 811.73 555.278 804.142 552.189C804.142 552.189 802.538 559.777 790.883 557.599L786.312 555.301L778.945 576.214L771.451 582.828C769.812 584.275 768.05 585.108 768.191 587.29Z" fill="#2F2E41"/>
<path d="M721.769 581.316L707.455 581.314L700.646 526.105L718.167 528.287L721.769 581.316Z" fill="#FFB6B6"/>
<path d="M672.73 580.991C672.284 581.742 672.049 584.164 672.049 585.037C672.049 587.72 674.224 589.895 676.907 589.895H721.233C723.064 589.895 724.548 588.411 724.548 586.581V584.735C724.548 584.735 726.74 579.189 722.226 572.352C722.226 572.352 716.615 577.705 708.23 569.321L705.758 564.842L687.861 577.931L677.941 579.152C675.77 579.419 673.846 579.111 672.73 580.991Z" fill="#2F2E41"/>
<path d="M671.585 371.505L672.662 384.524L670.519 394.877L674.422 405.792L679.196 463.502L704.08 563L723.08 567L713.959 467.613L721.034 385.635L671.585 371.505Z" fill="#2F2E41"/>
<path d="M752.325 314.985L679.659 315.994L671.585 371.502L721.034 394.715L719.457 473.991L774.528 553.711L803.859 536.953L754.71 469.252L768.473 356.363L752.325 314.985Z" fill="#2F2E41"/>
<path d="M698.534 184.487L685.714 200.94L691.77 327.095L739.204 326.086L747.278 216.079L737.186 187.82L733.534 181.487L729.167 173.287L701.167 175.287L698.534 184.487Z" fill="#E6E6E6"/>
<path d="M679.603 262.504L682.167 288.287L679.017 317.956L675.08 326L666.08 358C666.08 358 656.895 371.994 677.08 373C697.265 374.006 763.426 367.459 763.426 367.459C763.426 367.459 771.675 367.255 768.08 350C762.273 340.02 766.017 325.956 766.017 325.956L758.38 297.821L760.398 271.581L774.528 202.952C761.979 193.09 747.924 186.032 732.644 181.252L719.262 216.442L699.336 184.28L691.767 189.831C681.558 192.508 672.573 196.625 665.467 202.951L679.603 262.504Z" fill="#2F2E41"/>
<path d="M440.046 201.291H297.611C287.848 201.28 279.936 193.368 279.925 183.605V122.38C279.936 112.617 287.848 104.705 297.611 104.694C343.061 92.1018 390.729 93.2818 440.046 104.694C449.809 104.705 457.72 112.617 457.731 122.38V183.605C457.72 193.368 449.809 201.279 440.046 201.291Z" fill="#F2F2F2"/>
<path d="M454.557 265.457H283.101C281.348 265.455 279.927 264.035 279.926 262.282V219.752C279.928 217.999 281.348 216.579 283.101 216.577H454.557C456.309 216.579 457.73 217.999 457.732 219.752V262.283C457.73 264.035 456.309 265.456 454.557 265.458V265.457ZM283.101 217.847C282.049 217.848 281.197 218.7 281.196 219.752V262.283C281.197 263.334 282.049 264.187 283.101 264.188H454.557C455.608 264.187 456.461 263.334 456.462 262.283V219.752C456.461 218.7 455.608 217.848 454.557 217.847H283.101Z" fill="#E6E6E6"/>
<path d="M336.124 232.123C334.897 232.149 333.923 233.165 333.949 234.392C333.974 235.583 334.933 236.543 336.124 236.568H440.902C442.129 236.615 443.162 235.658 443.209 234.431C443.256 233.204 442.299 232.172 441.072 232.125H336.124V232.123Z" fill="#E6E6E6"/>
<path d="M336.124 245.462C334.897 245.488 333.923 246.504 333.949 247.731C333.974 248.922 334.933 249.881 336.124 249.907H440.902C442.129 249.954 443.162 248.997 443.209 247.77C443.256 246.543 442.299 245.511 441.072 245.464H336.124V245.462Z" fill="#E6E6E6"/>
<path d="M306.692 249.909C311.602 249.909 315.583 245.928 315.583 241.018C315.583 236.107 311.602 232.127 306.692 232.127C301.781 232.127 297.801 236.107 297.801 241.018C297.801 245.928 301.781 249.909 306.692 249.909Z" fill="#E6E6E6"/>
<path d="M454.557 474.213H283.101C281.348 474.211 279.927 472.791 279.926 471.038V428.508C279.928 426.755 281.348 425.335 283.101 425.333H454.557C456.309 425.335 457.73 426.755 457.732 428.508V471.039C457.73 472.791 456.309 474.212 454.557 474.214V474.213ZM283.101 426.603C282.049 426.604 281.197 427.456 281.196 428.508V471.039C281.197 472.09 282.049 472.943 283.101 472.944L435.08 471.446C436.131 471.445 452.079 465.498 452.08 464.446L456.462 428.508C456.461 427.456 455.608 426.604 454.557 426.603H283.101Z" fill="#E6E6E6"/>
<path d="M336.124 447.219C334.897 447.193 333.881 448.167 333.855 449.394C333.829 450.622 334.803 451.638 336.031 451.664C336.062 451.664 336.093 451.664 336.124 451.664H440.902C442.129 451.711 443.162 450.754 443.209 449.527C443.256 448.3 442.299 447.268 441.072 447.221H336.124V447.219Z" fill="#E6E6E6"/>
<path d="M306.692 458.665C311.602 458.665 315.583 454.684 315.583 449.774C315.583 444.863 311.602 440.883 306.692 440.883C301.781 440.883 297.801 444.863 297.801 449.774C297.801 454.684 301.781 458.665 306.692 458.665Z" fill="#E6E6E6"/>
<path d="M454.557 386.213H283.101C281.348 386.211 279.927 384.791 279.926 383.038V340.508C279.928 338.755 281.348 337.335 283.101 337.333H454.557C456.309 337.335 457.73 338.755 457.732 340.508V383.039C457.73 384.791 456.309 386.212 454.557 386.214V386.213ZM283.101 338.603C282.049 338.604 281.197 339.456 281.196 340.508V383.039C281.197 384.09 282.049 384.943 283.101 384.944L435.08 383.446C436.131 383.445 452.079 377.498 452.08 376.446L456.462 340.508C456.461 339.456 455.608 338.604 454.557 338.603H283.101Z" fill="#E6E6E6"/>
<path d="M336.124 359.219C334.897 359.193 333.881 360.167 333.855 361.394C333.829 362.622 334.803 363.638 336.031 363.664C336.062 363.664 336.093 363.664 336.124 363.664H440.902C442.129 363.711 443.162 362.754 443.209 361.527C443.256 360.3 442.299 359.268 441.072 359.221H336.124V359.219Z" fill="#E6E6E6"/>
<path d="M306.692 370.665C311.602 370.665 315.583 366.684 315.583 361.774C315.583 356.863 311.602 352.883 306.692 352.883C301.781 352.883 297.801 356.863 297.801 361.774C297.801 366.684 301.781 370.665 306.692 370.665Z" fill="#E6E6E6"/>
<path d="M712.669 172.12C726.504 172.12 737.719 160.905 737.719 147.071C737.719 133.237 726.504 122.022 712.669 122.022C698.835 122.022 687.62 133.237 687.62 147.071C687.62 160.905 698.835 172.12 712.669 172.12Z" fill="#FFB6B6"/>
<path d="M731.067 167.652C732.447 167.888 734.066 164.543 735.614 161.286C738.855 154.467 740.914 150.133 741.071 144.006C741.205 138.784 739.754 140.154 738.343 128.545C737.877 124.715 731.335 124.723 730.004 122.904C727.755 119.833 731.205 118.566 725.61 116.721C715.129 113.265 710.389 118.634 703.733 119.097C703.565 119.108 700.265 122.335 698.422 122.502C695.193 122.794 690.536 122.292 688.447 117.372C686.495 112.772 685.201 126.214 686.947 127.877C688.428 129.289 690.984 132.834 691.049 133.092C691.123 133.384 684.972 126.57 683.945 129.378C683.206 131.399 685.532 141.796 687.412 142.187C688.983 142.514 692.826 137.334 691.959 139.458C689.948 144.385 702.04 147.528 716.515 137.639C717.028 137.289 716.543 137.848 718.334 142.187C720.592 147.659 721.102 147.956 721.062 149.463C720.977 152.725 718.527 153.686 719.243 155.829C719.823 157.565 722.09 158.909 723.791 158.558C725.71 158.161 726.039 155.787 727.429 155.829C728.619 155.865 730.031 157.658 730.157 159.467C730.422 163.279 724.78 164.327 723.791 169.471C723.233 172.375 729.799 167.436 731.067 167.652Z" fill="#2F2E41"/>
<path d="M787.755 367.879C787.863 365.074 787.298 362.284 786.107 359.742L788.687 330.509L774.737 329.689L773.623 359.436C772.306 361.916 771.603 364.675 771.572 367.482C771.397 374.504 774.878 380.286 779.345 380.398C783.812 380.51 787.577 374.907 787.752 367.886L787.755 367.879Z" fill="#FFB6B6"/>
<path d="M758.08 250L769.08 284L772.238 353.441L790.652 353.065L792.08 277C792.08 277 782.903 220.795 779.83 208.162C776.758 195.529 748.424 200.211 748.424 200.211L758.08 250Z" fill="#2F2E41"/>
<path d="M301.82 161.356C307.022 163.084 312.476 164.832 318.029 164.537C320.556 164.403 322.987 163.8 325.279 162.728C327.63 161.629 329.778 160.136 332.158 159.094C340.903 155.267 349.576 161.806 357.732 164.26C361.802 165.485 366.081 165.778 370.062 164.072C374.459 162.188 377.776 158.592 381.397 155.59C389.516 148.858 400.108 145.229 410.645 145.503C422.204 145.804 433.392 150.91 441.352 159.261C442.019 159.961 443.079 158.899 442.412 158.2C435.456 150.902 426.083 145.981 416.101 144.49C406.098 142.996 395.714 144.993 386.918 149.974C382.468 152.495 378.898 155.945 374.977 159.166C371.159 162.302 366.914 164.322 361.88 163.656C353.208 162.508 345.749 155.825 336.755 156.431C331.01 156.818 326.908 161.14 321.503 162.518C315.054 164.162 308.314 161.934 302.219 159.91C301.301 159.605 300.907 161.053 301.82 161.356Z" fill="#3F3D56"/>
<path d="M318.102 169.349C321.17 169.349 323.658 166.861 323.658 163.793C323.658 160.724 321.17 158.237 318.102 158.237C315.033 158.237 312.546 160.724 312.546 163.793C312.546 166.861 315.033 169.349 318.102 169.349Z" fill="#6C63FF"/>
<path d="M366.066 169.595C369.134 169.595 371.622 167.107 371.622 164.039C371.622 160.97 369.134 158.483 366.066 158.483C362.997 158.483 360.51 160.97 360.51 164.039C360.51 167.107 362.997 169.595 366.066 169.595Z" fill="#6C63FF"/>
<path d="M414.776 150.748C417.844 150.748 420.332 148.26 420.332 145.192C420.332 142.123 417.844 139.636 414.776 139.636C411.707 139.636 409.22 142.123 409.22 145.192C409.22 148.26 411.707 150.748 414.776 150.748Z" fill="#6C63FF"/>
<path d="M92.3862 337.949C75.9592 384.721 96.8888 421.57 92.5455 397.8C88.9157 377.934 150.768 317.485 169.386 329.949C168.996 327.932 157.162 291.562 156.002 291.394C157.625 287.307 155.363 287.268 155.271 285.174C154.919 277.086 156.799 268.69 160.461 260.049C162.861 253.373 162.903 247.637 160.577 243.012C158.576 239.211 155.213 236.305 151.162 234.875L138.962 220.141C135.784 216.306 131.097 208.031 126.117 208.062L99.3842 207.107C98.6203 206.648 89.2332 214.72 80.0932 218.681C70.1802 222.981 72.2252 234.717 72.2502 234.867L72.2732 235.007L72.3822 235.107L86.9532 277.995L100.118 290.333C99.4513 292.267 99.6182 293.719 100.867 294.552C99.0742 295.878 91.0982 335.559 92.3861 336.949L92.3862 337.949Z" fill="#6C63FF"/>
<path d="M229.751 253.07C227.763 253.863 225.994 255.121 224.592 256.738L203.422 263.995L207.17 273.967L228.241 265.532C230.376 265.681 232.516 265.317 234.482 264.47C239.429 262.417 242.382 258.201 241.074 255.053C239.766 251.905 234.698 251.017 229.751 253.07Z" fill="#FFB6B6"/>
<path d="M116.821 221.067L165.116 286.257L221.727 270.667L219.266 255.899L176.158 264.064L152.109 227.092C144.256 211.912 128.778 208.855 116.821 221.066V221.067Z" fill="#6C63FF"/>
<path d="M463.687 549.787H441.647C437.798 549.787 434.667 546.655 434.667 542.806C430.489 531.455 429.962 521.273 434.667 512.767C434.667 508.919 437.798 505.787 441.647 505.787C448.164 501.06 455.763 502.495 463.687 505.787C467.536 505.787 470.667 508.919 470.667 512.767C467.993 522.392 468.186 532.433 470.667 542.806C470.667 546.655 467.536 549.787 463.687 549.787Z" fill="#6C63FF"/>
<path d="M461.555 519.156H443.755C443.141 519.156 442.643 518.658 442.643 518.043C442.643 517.429 443.141 516.931 443.755 516.931H461.555C462.169 516.931 462.668 517.429 462.668 518.043C462.668 518.658 462.169 519.156 461.555 519.156Z" fill="white"/>
<path d="M461.555 528.054H443.755C443.141 528.054 442.643 527.556 442.643 526.941C442.643 526.327 443.141 525.829 443.755 525.829H461.555C462.169 525.829 462.668 526.327 462.668 526.941C462.668 527.556 462.169 528.054 461.555 528.054Z" fill="white"/>
<path d="M461.555 536.953H443.755C443.141 536.953 442.643 536.455 442.643 535.84C442.643 535.226 443.141 534.728 443.755 534.728H461.555C462.169 534.728 462.668 535.226 462.668 535.84C462.668 536.455 462.169 536.953 461.555 536.953Z" fill="white"/>
<path d="M851.534 590.23H0.5V591.913H851.534V590.23Z" />
<path d="M664.703 365.547C665.427 372.533 669.618 377.824 674.063 377.363C678.508 376.903 681.526 370.866 680.803 363.879C680.552 361.083 679.635 358.388 678.129 356.019L674.694 326.449L660.851 328.357L665.707 357.299C664.718 359.926 664.373 362.752 664.7 365.54L664.703 365.547Z" fill="#FFB6B6"/>
<path d="M685.073 245.703L690.81 195.311C690.81 195.311 662.197 192.857 660.12 205.692C658.044 218.526 653.287 275.277 653.287 275.277L660.655 350.997L679.042 349.933L676.764 280.458L685.073 245.703Z" fill="#2F2E41"/>
<path d="M132.345 201.557L93.6858 205.077L92.5449 164.897L134.661 163.701L132.345 201.557Z" fill="#2F2E41"/>
<path d="M112.796 196.164C124.001 196.164 133.085 187.08 133.085 175.875C133.085 164.67 124.001 155.587 112.796 155.587C101.591 155.587 92.5078 164.67 92.5078 175.875C92.5078 187.08 101.591 196.164 112.796 196.164Z" fill="#FFB6B6"/>
<path d="M129.117 156.107C128.974 151.073 122.71 150.528 117.829 149.285L113.404 146.988C109.06 145.883 104.451 146.66 100.71 149.13L88.9091 156.28C83.6103 159.779 82.7686 165.434 80.6138 171.407L76.7138 180.151C74.5927 186.031 77.3957 193.822 79.5399 199.694L80.4384 202.154L79.0334 210.207L103.626 209.058L105.812 196.627L101.614 191.908C100.125 190.234 100.004 187.748 101.324 185.937C106.073 179.423 105.192 170.294 105.192 170.294L111.202 173.573C115.151 174.111 118.67 174.052 121.766 173.405C125.171 172.694 128.064 171.271 130.456 169.15L132.599 176.357C133.151 185.326 131.475 187.706 123.48 196.479L137.499 205.281L136.981 200.518C135.747 189.188 139.508 180.253 138.981 171.032C138.616 164.655 134.824 158.974 129.117 156.107Z" fill="#2F2E41"/>
<path d="M132.474 327.18C130.494 326.369 128.348 326.045 126.216 326.233L105.949 316.741L101.715 326.517L122.729 335.093C124.161 336.684 125.953 337.909 127.955 338.666C132.939 340.627 137.992 339.647 139.239 336.474C140.486 333.302 137.458 329.141 132.474 327.18Z" fill="#FFB6B6"/>
<path d="M73.5025 225.694L62.9336 306.133L114.477 334.259L122.969 321.929L86.2956 297.846L94.6924 254.547C99.5933 238.174 90.5869 225.22 73.5032 225.693L73.5025 225.694Z" fill="#6C63FF"/>
</g>
<defs>
<clipPath id="clip0_77_880">
<rect width="851.034" height="593.126" fill="white" transform="translate(0.5)"/>
</clipPath>
</defs>
</svg>
