<svg width="35" height="35" viewBox="0 0 35 35" fill="none" xmlns="http://www.w3.org/2000/svg">
<g id="Group">
<g id="Clip path group">
<mask id="mask0_1454_74" style="mask-type:luminance" maskUnits="userSpaceOnUse" x="0" y="0" width="35" height="35">
<g id="a">
<path id="Vector" d="M0 0H35V35H0V0Z" fill="white"/>
</g>
</mask>
<g mask="url(#mask0_1454_74)">
<g id="Group_2">
<path id="Vector_2" d="M31.3072 9.5092C31.2903 8.61964 31.2742 7.77923 31.2742 6.9663C31.2742 6.32933 30.7579 5.81301 30.1209 5.81301C25.1887 5.81301 21.4335 4.39544 18.3033 1.35201C17.8556 0.916495 17.143 0.9167 16.6954 1.35201C13.5656 4.39544 9.811 5.81301 4.87914 5.81301C4.24217 5.81301 3.72578 6.32933 3.72578 6.9663C3.72578 7.77943 3.70986 8.62012 3.69277 9.50988C3.53472 17.7884 3.31822 29.1264 17.1216 33.911C17.3663 33.9958 17.6324 33.9958 17.877 33.911C31.6815 29.1262 31.4653 17.7879 31.3072 9.5092Z" stroke="#E73493" stroke-miterlimit="10"/>
<path id="Vector_3" d="M19.5466 15.1111V10.7859H15.4542V15.1111H11.1288V19.2035H15.4542V23.5286H19.5466V19.2035H23.8714V15.1111H19.5466Z" stroke="#E73493" stroke-miterlimit="10" stroke-linejoin="round"/>
</g>
</g>
</g>
</g>
</svg>
