<svg width="68" height="11" viewBox="0 0 68 11" fill="none" xmlns="http://www.w3.org/2000/svg">
<path id="Vector" d="M1.22938 8.62826C3.66758 9.43779 6.22377 10.2573 8.82636 10.119C10.0108 10.0561 11.1501 9.77365 12.2244 9.27126C13.3264 8.75597 14.3332 8.05626 15.4486 7.56808C19.5476 5.77401 23.6128 8.83886 27.4356 9.9892C29.3429 10.5631 31.3486 10.7005 33.2142 9.9011C35.2754 9.01791 36.8303 7.33252 38.5274 5.92532C42.3325 2.77027 47.2973 1.06928 52.2359 1.19788C57.6535 1.33895 62.8974 3.73187 66.6281 7.64597C66.9409 7.97414 67.4376 7.47647 67.1253 7.14884C63.8648 3.72815 59.4715 1.42197 54.7931 0.723129C50.1046 0.0227789 45.2375 0.958575 41.1151 3.29337C39.029 4.47488 37.3559 6.09216 35.5182 7.60149C33.7286 9.07126 31.7389 10.0184 29.3796 9.70607C25.315 9.16791 21.8187 6.03588 17.6033 6.31984C14.9109 6.50121 12.988 8.52685 10.4546 9.17263C7.43216 9.94305 4.27318 8.89885 1.41632 7.95033C0.985936 7.80743 0.801359 8.48615 1.22938 8.62826Z" fill="#3F3D56"/>
</svg>
