<svg width="12" height="12" viewBox="0 0 12 12" fill="none" xmlns="http://www.w3.org/2000/svg">
<g id="Group">
<path id="Vector" d="M6 0C4.81331 0 3.65328 0.351894 2.66658 1.01118C1.67989 1.67047 0.910851 2.60754 0.456725 3.7039C0.00259973 4.80025 -0.11622 6.00665 0.115291 7.17054C0.346802 8.33443 0.918247 9.40352 1.75736 10.2426C2.59648 11.0818 3.66557 11.6532 4.82946 11.8847C5.99335 12.1162 7.19975 11.9974 8.2961 11.5433C9.39246 11.0891 10.3295 10.3201 10.9888 9.33342C11.6481 8.34673 12 7.18669 12 6C11.9981 4.40928 11.3654 2.88424 10.2406 1.75943C9.11576 0.63462 7.59072 0.00187662 6 0ZM6 10.9091C5.02908 10.9091 4.07995 10.6212 3.27266 10.0818C2.46536 9.54234 1.83615 8.77565 1.46459 7.87863C1.09304 6.98161 0.99582 5.99455 1.18524 5.04228C1.37466 4.09001 1.8422 3.2153 2.52875 2.52875C3.2153 1.8422 4.09002 1.37465 5.04229 1.18524C5.99456 0.995817 6.98161 1.09303 7.87863 1.46459C8.77565 1.83615 9.54234 2.46536 10.0818 3.27265C10.6212 4.07995 10.9091 5.02907 10.9091 6C10.9075 7.30148 10.3898 8.54921 9.4695 9.4695C8.54921 10.3898 7.30149 10.9075 6 10.9091Z" fill="#E73493"/>
<path id="Vector_2" d="M6.54501 5.77419V2.72728C6.54501 2.58261 6.48754 2.44388 6.38525 2.34158C6.28296 2.23929 6.14422 2.18182 5.99956 2.18182C5.85489 2.18182 5.71615 2.23929 5.61386 2.34158C5.51157 2.44388 5.4541 2.58261 5.4541 2.72728V6C5.45413 6.14466 5.51162 6.28337 5.61392 6.38564L7.25028 8.022C7.35316 8.12136 7.49094 8.17634 7.63396 8.1751C7.77697 8.17386 7.91378 8.11649 8.01491 8.01536C8.11604 7.91423 8.17341 7.77742 8.17465 7.63441C8.17589 7.49139 8.12091 7.35361 8.02156 7.25073L6.54501 5.77419Z" fill="#E73493"/>
</g>
</svg>
